<svg xmlns="http://www.w3.org/2000/svg" viewBox="0 0 128 128"><defs><linearGradient id="body" x2=".8" y2="1"><stop stop-color="#fff5c8"/><stop offset=".52" stop-color="#d5ac64"/><stop offset="1" stop-color="#323d3e"/></linearGradient><linearGradient id="shine" x2=".3" y2="1"><stop stop-color="#fff1c6"/><stop offset="1" stop-color="#fff5c8"/></linearGradient></defs><g fill="url(#body)" stroke="#343839" stroke-width="2.5" stroke-linecap="round" stroke-linejoin="round"><path d="M50 62Q18 25 7 28L17 70 44 83m34-21q30-37 41-34l-10 42-27 13"/><path d="M48 68 34 99 45 110 48 122h17l-1-32 8 0 2 32h17l-4-28-8-26Z"/><path d="m44 70-18 15 5 18 13-15m39-18 17 16-6 17-11-15"/><ellipse cx="65" cy="47" rx="24" ry="26"/><path d="m51 44 7 2m18-2-7 2" stroke="#29333b" stroke-width="5"/><ellipse cx="65" cy="12" rx="23" ry="7" fill="none" stroke="#ffe49b" stroke-width="5"/><path d="m26 99 0-40m-8 9h16" fill="none" stroke="#ffe8a6" stroke-width="6"/></g></svg>