<svg xmlns="http://www.w3.org/2000/svg" viewBox="0 0 128 128"><defs><linearGradient id="body" x2=".8" y2="1"><stop stop-color="#e4bd7b"/><stop offset=".52" stop-color="#976137"/><stop offset="1" stop-color="#323d3e"/></linearGradient><linearGradient id="shine" x2=".3" y2="1"><stop stop-color="#fff1c6"/><stop offset="1" stop-color="#e4bd7b"/></linearGradient></defs><g fill="url(#body)" stroke="#343839" stroke-width="2.5" stroke-linecap="round" stroke-linejoin="round"><ellipse cx="58" cy="86" rx="34" ry="22"/><path d="M28 87 25 116h17l6-25m25-2 1 27h17L87 88M28 81Q4 75 10 57"/><path d="M63 39 77 29 103 34 119 51 114 78 98 94 74 90 59 70Z"/><ellipse cx="89" cy="61" rx="23" ry="25" fill="url(#shine)"/><path d="m78 55 5 2m17-2-5 2m-12 15 6 5 7-5" fill="none" stroke="#43352c"/></g></svg>