<svg xmlns="http://www.w3.org/2000/svg" viewBox="0 0 128 128"><defs><linearGradient id="body" x2=".8" y2="1"><stop stop-color="#a7bb70"/><stop offset=".52" stop-color="#695037"/><stop offset="1" stop-color="#323d3e"/></linearGradient><linearGradient id="shine" x2=".3" y2="1"><stop stop-color="#fff1c6"/><stop offset="1" stop-color="#a7bb70"/></linearGradient></defs><g fill="url(#body)" stroke="#343839" stroke-width="2.5" stroke-linecap="round" stroke-linejoin="round"><path d="M48 68 34 99 45 110 48 122h17l-1-32 8 0 2 32h17l-4-28-8-26Z"/><path d="m44 70-18 15 5 18 13-15m39-18 17 16-6 17-11-15"/><ellipse cx="65" cy="47" rx="24" ry="26"/><path d="m51 44 7 2m18-2-7 2" stroke="#29333b" stroke-width="5"/><path d="m44 49-21-20 5-21 14 18 18-17 16 6 19-9 17 29-20 26Z" fill="#789157"/><path d="m51 80 9-6-7 20m19-20 7 15" fill="none" stroke="#4c4830"/></g></svg>