<svg xmlns="http://www.w3.org/2000/svg" width="64" height="80" viewBox="0 0 64 80"><path fill="#132832" d="M14 66h14v10H12zm22 0h14l2 10H36z"/><path fill="#286c73" stroke="#b1f7db" stroke-width="2" d="M22 32h20l12 37H10z"/><path fill="#55bea2" d="M21 34h22l-5 28H26z"/><path fill="#ebc4a1" d="M22 18h20v18H22z"/><path fill="#202e4c" d="M20 15h24v10H20z"/><path fill="#243c57" stroke="#7bdac9" stroke-width="2" d="M10 20 33 2l13 18 9 5H8z"/><path fill="#faf0ce" d="M26 26h3v3h-3zm10 0h3v3h-3z"/><path fill="#e1b76b" d="M23 51h18v4H23z"/><path stroke="#98e7ce" stroke-width="6" d="m20 39-9 16m33-16 9 16"/></svg>